<svg width="121" height="49" viewBox="0 0 121 49" fill="none" xmlns="http://www.w3.org/2000/svg">
<path d="M66.9102 11.8189L68.9649 0H7.39044L0.935059 37.1788H52.3332L50.2674 49H113.607L120.065 11.8212L66.9102 11.8189ZM29.341 25.7736H19.2286L21.994 9.81124H25.1477L22.8679 22.9521H29.8221L29.341 25.7736ZM44.2733 25.7736L43.8121 23.9188H37.6855L36.6019 25.7736H33.4459L42.9822 9.67635H43.236L47.4778 25.7736H44.2733ZM110.833 45.6277H54.2091V45.5984L62.4852 37.1788H62.5051L66.3253 15.1867H116.115L110.833 45.6277Z" fill="#141414"/>
<path d="M42.0148 15.8529C41.7276 16.7956 41.3731 17.7062 40.9555 18.5743L39.4771 21.6176H42.9809L42.3523 18.6002C42.1736 17.6982 42.0607 16.7789 42.0148 15.8529Z" fill="#141414"/>
<path d="M74.5154 25.9412H77.4511L78.0192 23.7794H75.0834L74.5154 25.9412Z" fill="#141414"/>
<path d="M72.413 37.4706H75.1385L77.3184 27.3824H74.5907L72.413 37.4706Z" fill="#141414"/>
<path d="M90.4969 27.423C89.814 26.9163 88.8495 26.6618 87.5968 26.6618C86.2782 26.6618 85.1851 26.9996 84.3174 27.6753C83.5106 28.2583 82.9419 29.1212 82.7188 30.101C82.548 30.8984 82.6522 31.511 83.0336 31.9344C83.415 32.3578 84.1423 32.7227 85.2043 33.0088C86.7017 33.3887 87.5576 33.6567 87.7719 33.8128C87.8733 33.8882 87.9492 33.9937 87.9889 34.1148C88.0286 34.2358 88.0303 34.3665 87.9936 34.4885C87.9561 34.6467 87.8812 34.7931 87.7753 34.9152C87.6694 35.0373 87.5358 35.1312 87.3861 35.189C86.9801 35.3549 86.5441 35.4316 86.1068 35.4142C85.2287 35.4142 84.667 35.2363 84.4216 34.8804C84.2753 34.6822 84.2243 34.3444 84.2664 33.8714H81.6057C81.3928 34.9225 81.5909 35.7844 82.1999 36.457C82.8089 37.1297 83.9028 37.4676 85.4815 37.4706C87.0262 37.4706 88.2346 37.1515 89.1067 36.5134C89.9416 35.9294 90.5248 35.0429 90.7364 34.0358C90.8961 33.27 90.7697 32.6311 90.3573 32.1191C89.9448 31.6071 89.2427 31.2317 88.2509 30.993C86.7608 30.6431 85.902 30.3968 85.6744 30.2542C85.5597 30.1909 85.4715 30.0877 85.4258 29.9635C85.3802 29.8393 85.3803 29.7026 85.426 29.5785C85.4607 29.4439 85.5223 29.3181 85.607 29.2088C85.6917 29.0995 85.7976 29.0091 85.9183 28.9433C86.3109 28.7364 86.7519 28.643 87.1932 28.6731C87.885 28.6731 88.3388 28.8533 88.5546 29.2136C88.6742 29.4662 88.7159 29.7496 88.6744 30.0267H91.2974C91.4378 28.8 91.171 27.9321 90.4969 27.423Z" fill="#141414"/>
<path d="M100.888 24.5H98.4695L97.9114 27.3177H96.607L96.2391 29.1999H97.5434L96.3155 35.4181C96.1956 36.0477 96.2418 36.5136 96.454 36.8158C96.7848 37.2906 97.531 37.5072 98.6928 37.4655L99.8586 37.4187L100.253 35.4449L100.001 35.4583C99.9186 35.4583 99.84 35.4583 99.7656 35.4583C99.2674 35.4583 98.9801 35.4092 98.9036 35.3065C98.8271 35.2038 98.8271 34.947 98.9036 34.5317L99.9579 29.1955H101.477L101.845 27.3133H100.328L100.888 24.5Z" fill="#141414"/>
</svg>
